<svg width="96" height="96" viewBox="0 0 96 96" fill="none" xmlns="http://www.w3.org/2000/svg">
<path d="M49.9998 68.3156L71.7558 46.5596C72.1452 46.1703 72.6038 45.9663 73.1318 45.9476C73.6598 45.9316 74.1438 46.1449 74.5838 46.5876C75.0105 47.0249 75.2278 47.4956 75.2358 47.9996C75.2412 48.5009 75.0238 48.9729 74.5838 49.4156L50.2638 73.7356C49.9118 74.0849 49.5545 74.3303 49.1918 74.4716C48.8292 74.6129 48.4318 74.6836 47.9998 74.6836C47.5678 74.6836 47.1705 74.6129 46.8078 74.4716C46.4452 74.3303 46.0892 74.0849 45.7398 73.7356L21.4158 49.4156C21.0425 49.0423 20.8425 48.5876 20.8158 48.0516C20.7892 47.5129 20.9892 47.0236 21.4158 46.5836C21.8558 46.1436 22.3305 45.9236 22.8398 45.9236C23.3518 45.9236 23.8278 46.1436 24.2678 46.5836L45.9998 68.3196L45.9998 21.9996C45.9998 21.4289 46.1905 20.9529 46.5718 20.5716C46.9532 20.1903 47.4292 19.9996 47.9998 19.9996C48.5705 19.9996 49.0465 20.1903 49.4278 20.5716C49.8092 20.9529 49.9998 21.4289 49.9998 21.9996L49.9998 68.3156Z" fill="#8E3635"/>
</svg>
