<svg width="15" height="15" viewBox="0 0 15 15" fill="none" xmlns="http://www.w3.org/2000/svg">
<path d="M13.3333 7.16667C13.3333 8.80217 12.6836 10.3707 11.5272 11.5272C10.3707 12.6836 8.80217 13.3333 7.16667 13.3333V14.3333C11.1247 14.3333 14.3333 11.1247 14.3333 7.16667H13.3333ZM7.16667 13.3333C5.53116 13.3333 3.96265 12.6836 2.80617 11.5272C1.6497 10.3707 1 8.80217 1 7.16667H0C0 11.1247 3.20867 14.3333 7.16667 14.3333V13.3333ZM1 7.16667C1 5.53116 1.6497 3.96265 2.80617 2.80617C3.96265 1.6497 5.53116 1 7.16667 1V0C3.20867 0 0 3.20867 0 7.16667H1ZM9.5 8.66667C8.48334 8.66667 7.50831 8.2628 6.78942 7.54391C6.07053 6.82502 5.66667 5.85 5.66667 4.83333H4.66667C4.66667 6.11521 5.17589 7.34459 6.08232 8.25102C6.98874 9.15744 8.21812 9.66667 9.5 9.66667V8.66667ZM12.7833 6.81267C12.4422 7.37843 11.9607 7.84643 11.3854 8.17127C10.8101 8.49611 10.1606 8.66676 9.5 8.66667V9.66667C10.3329 9.66691 11.1518 9.45191 11.8771 9.0425C12.6025 8.6331 13.2098 8.04319 13.64 7.33L12.7833 6.81267ZM5.66667 4.83333C5.66657 4.17268 5.83722 3.52322 6.16206 2.94795C6.4869 2.37268 6.9549 1.89112 7.52067 1.55L7.00333 0.694C6.29023 1.12419 5.70039 1.73134 5.29099 2.45657C4.88159 3.18181 4.66653 4.00052 4.66667 4.83333H5.66667ZM7.16667 1C7.13316 0.999356 7.10012 0.992071 7.06945 0.978568C7.03878 0.965064 7.0111 0.945611 6.988 0.921333C6.95989 0.893102 6.94086 0.85712 6.93333 0.818C6.93067 0.797333 6.932 0.737333 7.00333 0.694L7.52067 1.55C7.856 1.34733 7.964 0.976 7.92467 0.684C7.88333 0.380667 7.64467 0 7.16667 0V1ZM13.64 7.33C13.596 7.40133 13.536 7.40267 13.5153 7.4C13.4762 7.39248 13.4402 7.37344 13.412 7.34533C13.3877 7.32223 13.3683 7.29455 13.3548 7.26388C13.3413 7.23321 13.334 7.20017 13.3333 7.16667H14.3333C14.3333 6.68867 13.9527 6.45 13.6493 6.40867C13.3573 6.36933 12.986 6.47733 12.7833 6.81267L13.64 7.33Z" fill="white"/>
</svg>
