<svg width="16" height="16" viewBox="0 0 16 16" fill="none" xmlns="http://www.w3.org/2000/svg">
<g clip-path="url(#clip0_106_22)">
<path d="M7.75089 3.75199C7.23389 3.75179 6.72191 3.85348 6.24423 4.05124C5.76654 4.24899 5.33251 4.53895 4.96693 4.90452C4.60135 5.2701 4.3114 5.70414 4.11364 6.18182C3.91588 6.65951 3.8142 7.17149 3.81439 7.68849C3.81446 8.73225 4.22916 9.73323 4.96725 10.4712C5.33272 10.8367 5.76658 11.1265 6.24407 11.3243C6.72156 11.522 7.23333 11.6238 7.75014 11.6237C8.26696 11.6237 8.77871 11.5219 9.25618 11.3241C9.73364 11.1263 10.1675 10.8363 10.5329 10.4709C10.8983 10.1054 11.1882 9.67155 11.3859 9.19406C11.5837 8.71657 11.6854 8.20481 11.6854 7.68799C11.6856 7.17111 11.584 6.65926 11.3863 6.18167C11.1886 5.70408 10.8988 5.27011 10.5334 4.90455C10.168 4.539 9.73411 4.24901 9.2566 4.05117C8.77909 3.85332 8.26727 3.75149 7.75039 3.75149L7.75089 3.75199ZM7.75089 10.625C6.97253 10.6237 6.22641 10.3139 5.67593 9.76366C5.12545 9.21336 4.81548 8.46735 4.81389 7.68899C4.81522 6.91046 5.12507 6.16419 5.67558 5.61368C6.22609 5.06317 6.97236 4.75331 7.75089 4.75199C8.52924 4.75331 9.27531 5.06323 9.8255 5.6138C10.3757 6.16437 10.6851 6.91064 10.6859 7.68899C10.6848 8.46717 10.3753 9.21318 9.82514 9.76353C9.27498 10.3139 8.52907 10.6237 7.75089 10.625ZM7.75089 3.48849C7.8835 3.48849 8.01068 3.43581 8.10445 3.34204C8.19822 3.24828 8.25089 3.1211 8.25089 2.98849V0.56199C8.24501 0.433255 8.18969 0.311751 8.09647 0.222779C8.00324 0.133806 7.87929 0.084222 7.75042 0.0843508C7.62155 0.0844797 7.49769 0.134312 7.40464 0.22347C7.3116 0.312629 7.25652 0.434243 7.25089 0.56299V2.98799C7.25089 3.26299 7.47439 3.48799 7.75089 3.48799V3.48849ZM9.35739 3.80749C9.41802 3.833 9.4831 3.84623 9.54888 3.84642C9.61465 3.84661 9.67981 3.83375 9.74058 3.80859C9.80136 3.78344 9.85654 3.74648 9.90294 3.69986C9.94934 3.65324 9.98603 3.59788 10.0109 3.53699L10.9389 1.29549C10.9894 1.17314 10.9894 1.03574 10.9388 0.913427C10.8882 0.79111 10.7911 0.693856 10.6689 0.64299C10.5462 0.592358 10.4084 0.592334 10.2857 0.642921C10.163 0.693509 10.0653 0.790598 10.0139 0.91299L9.08739 3.15499C9.03686 3.27734 9.0369 3.41474 9.08751 3.53705C9.13813 3.65937 9.23518 3.75662 9.35739 3.80749ZM10.7199 4.71749C10.7662 4.76408 10.8213 4.80106 10.882 4.82629C10.9426 4.85152 11.0077 4.86451 11.0734 4.86451C11.1391 4.86451 11.2042 4.85152 11.2648 4.82629C11.3255 4.80106 11.3806 4.76408 11.4269 4.71749L13.1419 3.00099C13.1896 2.95483 13.2277 2.89963 13.2538 2.83861C13.28 2.77759 13.2937 2.71197 13.2943 2.64558C13.2948 2.57919 13.2821 2.51336 13.2569 2.45193C13.2317 2.39051 13.1946 2.33471 13.1476 2.28779C13.1006 2.24088 13.0448 2.20379 12.9833 2.1787C12.9218 2.1536 12.856 2.141 12.7896 2.14162C12.7232 2.14224 12.6576 2.15608 12.5966 2.18233C12.5356 2.20857 12.4805 2.2467 12.4344 2.29449L10.7194 4.00949C10.6257 4.10349 10.5731 4.23078 10.5731 4.36349C10.5731 4.4962 10.6257 4.62349 10.7194 4.71749H10.7199ZM11.6314 6.07999C11.6564 6.14069 11.6932 6.19585 11.7396 6.24228C11.786 6.28872 11.8411 6.32552 11.9018 6.35057C11.9625 6.37561 12.0276 6.38841 12.0932 6.38823C12.1589 6.38804 12.2238 6.37488 12.2844 6.34949L14.5244 5.42049C14.5856 5.3957 14.6413 5.35903 14.6882 5.31261C14.7352 5.26618 14.7725 5.21092 14.7979 5.15001C14.8234 5.08909 14.8366 5.02374 14.8367 4.95771C14.8367 4.89168 14.8237 4.82629 14.7984 4.76532C14.7731 4.70434 14.736 4.64898 14.6891 4.60244C14.6423 4.55589 14.5867 4.51908 14.5256 4.49414C14.4644 4.46919 14.399 4.4566 14.3329 4.45709C14.2669 4.45758 14.2016 4.47114 14.1409 4.49699L11.9009 5.42549C11.6459 5.53149 11.5249 5.82449 11.6309 6.07949L11.6314 6.07999ZM14.8764 7.18499L12.4504 7.18599C12.1754 7.18599 11.9504 7.40999 11.9519 7.68599C11.9519 7.96299 12.1754 8.18599 12.4509 8.18599L14.8774 8.18499C15.0061 8.17923 15.1277 8.12404 15.2168 8.0309C15.3058 7.93776 15.3555 7.81386 15.3555 7.68499C15.3555 7.55612 15.3058 7.43222 15.2168 7.33908C15.1277 7.24594 15.0061 7.19075 14.8774 7.18499H14.8764ZM14.5264 9.94999L12.2864 9.02249C12.2257 8.99723 12.1607 8.98418 12.095 8.98409C12.0293 8.98399 11.9642 8.99685 11.9034 9.02192C11.8427 9.047 11.7875 9.0838 11.741 9.13023C11.6945 9.17665 11.6576 9.23179 11.6324 9.29249C11.5274 9.54849 11.6474 9.84099 11.9024 9.94749L14.1439 10.874C14.2048 10.9003 14.2703 10.9143 14.3367 10.9151C14.4031 10.9159 14.4689 10.9035 14.5304 10.8786C14.5919 10.8537 14.6479 10.8168 14.695 10.7701C14.7421 10.7233 14.7795 10.6677 14.8049 10.6064C14.8304 10.5451 14.8433 10.4794 14.8431 10.413C14.8429 10.3466 14.8295 10.281 14.8037 10.2199C14.7778 10.1587 14.7401 10.1033 14.6927 10.0569C14.6453 10.0105 14.5891 9.97399 14.5274 9.94949L14.5264 9.94999ZM11.4299 10.655C11.3356 10.5639 11.2093 10.5135 11.0782 10.5147C10.9471 10.5158 10.8217 10.5684 10.729 10.6611C10.6363 10.7538 10.5837 10.8792 10.5826 11.0103C10.5814 11.1414 10.6318 11.2677 10.7229 11.362L12.4399 13.077C12.5337 13.1707 12.6609 13.2232 12.7935 13.2231C12.9261 13.223 13.0532 13.1703 13.1469 13.0765C13.3419 12.8805 13.3419 12.564 13.1469 12.369L11.4299 10.655ZM10.0149 11.8365C9.96404 11.714 9.86659 11.6167 9.74399 11.566C9.62139 11.5153 9.48367 11.5154 9.36114 11.5662C9.23861 11.6171 9.1413 11.7145 9.09062 11.8371C9.03994 11.9597 9.04004 12.0975 9.09089 12.22L10.0209 14.46C10.0461 14.5207 10.083 14.5758 10.1295 14.6222C10.176 14.6687 10.2312 14.7055 10.2919 14.7306C10.3527 14.7556 10.4178 14.7685 10.4835 14.7684C10.5492 14.7683 10.6142 14.7552 10.6749 14.73C10.9299 14.625 11.0509 14.3315 10.9449 14.075L10.0149 11.8365ZM7.75589 11.888C7.62329 11.888 7.49611 11.9407 7.40234 12.0344C7.30857 12.1282 7.25589 12.2554 7.25589 12.388L7.25789 14.813C7.25789 14.9456 7.31057 15.0728 7.40434 15.1665C7.49811 15.2603 7.62529 15.313 7.75789 15.313C8.03439 15.313 8.25789 15.089 8.25689 14.813L8.25539 12.387C8.25539 12.112 8.03089 11.887 7.75589 11.888ZM6.14789 11.57C6.08719 11.5449 6.02215 11.5321 5.95648 11.5322C5.89081 11.5322 5.82579 11.5453 5.76515 11.5705C5.70452 11.5957 5.64944 11.6326 5.60307 11.6791C5.55669 11.7256 5.51994 11.7808 5.49489 11.8415L4.56889 14.083C4.53775 14.1591 4.52578 14.2416 4.53405 14.3234C4.54231 14.4052 4.57056 14.4837 4.61629 14.552C4.66203 14.6203 4.72385 14.6763 4.79632 14.7151C4.86879 14.7539 4.94969 14.7743 5.03189 14.7745C5.13083 14.7745 5.22754 14.7451 5.30979 14.6901C5.39203 14.6351 5.4561 14.5569 5.49389 14.4655L6.42039 12.223C6.47082 12.1004 6.47049 11.9628 6.41948 11.8404C6.36848 11.7181 6.27097 11.621 6.14839 11.5705L6.14789 11.57ZM4.78489 10.6625C4.73839 10.6161 4.6832 10.5793 4.62246 10.5542C4.56173 10.5291 4.49664 10.5163 4.43094 10.5163C4.36523 10.5164 4.30018 10.5295 4.23952 10.5547C4.17886 10.58 4.12376 10.6169 4.07739 10.6635L2.36489 12.38C2.31847 12.4264 2.28165 12.4816 2.25654 12.5423C2.23143 12.603 2.21852 12.668 2.21854 12.7337C2.21857 12.7993 2.23152 12.8644 2.25668 12.925C2.28183 12.9857 2.31869 13.0408 2.36514 13.0872C2.4116 13.1337 2.46674 13.1705 2.52743 13.1956C2.58811 13.2207 2.65315 13.2336 2.71882 13.2336C2.7845 13.2336 2.84952 13.2206 2.91019 13.1955C2.97085 13.1703 3.02597 13.1334 3.07239 13.087L4.78589 11.37C4.83232 11.3235 4.86912 11.2683 4.89419 11.2076C4.91927 11.1468 4.93213 11.0817 4.93204 11.016C4.93194 10.9503 4.9189 10.8853 4.89365 10.8246C4.86841 10.764 4.83145 10.7089 4.78489 10.6625ZM3.87289 9.30249C3.82203 9.18003 3.72461 9.08279 3.60206 9.03215C3.47951 8.98152 3.34186 8.98164 3.21939 9.03249L0.979394 9.96249C0.862818 10.0172 0.771839 10.1148 0.725381 10.235C0.678923 10.3551 0.680562 10.4885 0.729957 10.6075C0.779352 10.7264 0.872701 10.8217 0.990587 10.8736C1.10847 10.9255 1.24182 10.9299 1.36289 10.886L3.60289 9.95599C3.85689 9.84849 3.97789 9.55599 3.87289 9.30099V9.30249ZM3.54989 7.69499C3.54989 7.56238 3.49722 7.4352 3.40345 7.34144C3.30968 7.24767 3.1825 7.19499 3.04989 7.19499L0.624894 7.19849C0.557419 7.19547 0.490031 7.20615 0.426797 7.22989C0.363564 7.25363 0.305796 7.28994 0.25698 7.33662C0.208164 7.3833 0.169311 7.43939 0.142768 7.5015C0.116224 7.5636 0.102539 7.63045 0.102539 7.69799C0.102539 7.76553 0.116224 7.83238 0.142768 7.89448C0.169311 7.95659 0.208164 8.01268 0.25698 8.05936C0.305796 8.10604 0.363564 8.14235 0.426797 8.16609C0.490031 8.18983 0.557419 8.20051 0.624894 8.19749L3.05089 8.19449C3.32689 8.19449 3.55089 7.96949 3.54989 7.69449V7.69499ZM0.971894 5.43499L3.21439 6.35999C3.27541 6.38674 3.34115 6.40103 3.40776 6.40202C3.47438 6.40301 3.54051 6.39068 3.60229 6.36575C3.66407 6.34082 3.72025 6.30379 3.76752 6.25685C3.81479 6.2099 3.8522 6.15398 3.87755 6.09238C3.90291 6.03077 3.9157 5.96472 3.91517 5.8981C3.91464 5.83148 3.9008 5.76564 3.87447 5.70445C3.84813 5.64325 3.80984 5.58794 3.76183 5.54175C3.71382 5.49556 3.65706 5.45943 3.59489 5.43549L1.35489 4.50999C1.23411 4.46811 1.10188 4.47398 0.985285 4.52641C0.86869 4.57885 0.776549 4.67387 0.727729 4.79202C0.678909 4.91017 0.677103 5.04252 0.722681 5.16196C0.768259 5.2814 0.857773 5.3789 0.972894 5.43449L0.971894 5.43499ZM4.06839 4.72499C4.11493 4.77138 4.17015 4.80814 4.2309 4.83318C4.29166 4.85821 4.35675 4.87102 4.42245 4.87088C4.48816 4.87074 4.5532 4.85766 4.61384 4.83236C4.67449 4.80707 4.72956 4.77008 4.77589 4.72349C4.8693 4.62939 4.92151 4.50205 4.92104 4.36947C4.92057 4.23689 4.86746 4.10992 4.77339 4.01649L3.05639 2.30499C2.9625 2.21139 2.83527 2.15891 2.70269 2.1591C2.5701 2.15928 2.44303 2.21212 2.34939 2.30599C2.25566 2.39975 2.203 2.52691 2.203 2.65949C2.203 2.79207 2.25566 2.91923 2.34939 3.01299L4.06839 4.72499ZM5.48189 3.54199C5.53295 3.66445 5.63056 3.76162 5.75326 3.81211C5.87595 3.86261 6.01368 3.86229 6.13614 3.81124C6.25861 3.76019 6.35577 3.66257 6.40627 3.53988C6.45676 3.41718 6.45645 3.27945 6.40539 3.15699L5.47389 0.91699C5.42284 0.79446 5.3252 0.69723 5.20246 0.646689C5.07972 0.596147 4.94192 0.596436 4.81939 0.64749C4.69686 0.698544 4.59963 0.796182 4.54909 0.918925C4.49855 1.04167 4.49884 1.17946 4.54989 1.30199L5.48189 3.54199Z" fill="white"/>
</g>
<defs>
<clipPath id="clip0_106_22">
<rect width="16" height="16" fill="white"/>
</clipPath>
</defs>
</svg>
